# AST/ASF file generated using VICON BodyLanguage
# -----------------------------------------------
:version 1.10
:name VICON
:units
  mass 1.0
  length 0.45
  angle deg
:documentation
   .ast/.asf automatically generated from VICON data using
   VICON BodyBuilder and BodyLanguage model FoxedUp or BRILLIANT.MOD
:root
   order TX TY TZ RX RY RZ
   axis XYZ
   position 0 0 0  
   orientation 0 0 0 
:bonedata
  begin
     id 1 
     name lhipjoint
     direction 0.567725 -0.736092 0.368589 
     length 2.42353 
     axis 0 0 0  XYZ
  end
  begin
     id 2 
     name lfemur
     direction 0.34202 -0.939693 0  
     length 7.24894  
     axis 0 0 20  XYZ
    dof rx ry rz
    limits (-160.0 20.0)
           (-70.0 70.0)
           (-60.0 70.0)
  end
  begin
     id 3 
     name ltibia
     direction 0.34202 -0.939693 0   
     length 7.6997   
     axis 0 0 20   XYZ
    dof rx
    limits (-10.0 170.0)
  end
  begin
     id 4 
     name lfoot
     direction 0.100767 -0.276854 0.955614   
     length 2.37556   
     axis -90 7.62852e-016 20   XYZ
    dof rx rz
    limits (-45.0 90.0)
           (-70.0 20.0)
  end
  begin
     id 5 
     name ltoes
     direction 1.53592e-011 -4.21894e-011 1   
     length 1.18363   
     axis -90 7.62852e-016 20   XYZ
    dof rx
    limits (-90.0 20.0)
  end
  begin
     id 6 
     name rhipjoint
     direction -0.556459 -0.742938 0.372017   
     length 2.4012  
     axis 0 0 0  XYZ 
  end
  begin
     id 7 
     name rfemur
     direction -0.34202 -0.939693 0   
     length 7.5119   
     axis 0 0 -20   XYZ
    dof rx ry rz
    limits (-160.0 20.0)
           (-70.0 70.0)
           (-70.0 60.0)
  end
  begin
     id 8 
     name rtibia
     direction -0.34202 -0.939693 0   
     length 7.50155   
     axis 0 0 -20   XYZ
    dof rx
    limits (-10.0 170.0)
 end
 begin
     id 9 
     name rfoot
     direction -0.118427 -0.325376 0.938139   
     length 2.32487  
     axis -90 -7.62852e-016 -20   XYZ
    dof rx rz
    limits (-45.0 90.0)
           (-20.0 70.0)
  end
  begin
     id 10 
     name rtoes
     direction -1.53525e-011 -4.21868e-011 1   
     length 1.15233   
     axis -90 -7.62852e-016 -20   XYZ
    dof rx
    limits (-90.0 20.0)
  end
  begin
     id 11 
     name lowerback
     direction 0.0287568 0.999577 -0.00434502   
     length 2.15243   
     axis 0 0 0   XYZ
    dof rx ry rz
    limits (-20.0 45.0)
           (-30.0 30.0)
           (-30.0 30.0)
  end
  begin
     id 12 
     name upperback
     direction 0.0294009 0.99956 0.00404628   
     length 2.15427   
     axis 0 0 0   XYZ
    dof rx ry rz
    limits (-20.0 45.0)
           (-30.0 30.0)
           (-30.0 30.0)
  end
  begin
     id 13 
     name thorax
     direction 0.0151014 0.999868 0.0059419   
     length 2.14898   
     axis 0 0 0   XYZ
    dof rx ry rz
    limits (-20.0 45.0)
           (-30.0 30.0)
           (-30.0 30.0)
  end
  begin
     id 14 
     name lowerneck
     direction -0.0249197 0.989906 0.139515   
     length 1.6861   
     axis 0 0 0   XYZ
    dof rx ry rz
    limits (-20.0 45.0)
           (-30.0 30.0)
           (-30.0 30.0)
  end
  begin
     id 15 
     name upperneck
     direction 0.0438463 0.988795 -0.142693   
     length 1.71276   
     axis 0 0 0   XYZ
    dof rx ry rz
    limits (-20.0 45.0)
           (-30.0 30.0)
           (-30.0 30.0)
  end
  begin
     id 16
     name head
     direction 0.0148499 0.997845 -0.0639186  
     length 1.7209  
     axis 0 0 0   XYZ
    dof rx ry rz
    limits (-20.0 45.0)
           (-30.0 30.0)
           (-30.0 30.0)
  end
  begin
     id 17 
     name lclavicle
     direction 0.940298 0.323464 -0.105876  
     length 3.9048  
     axis 0 0 0   XYZ
    dof ry rz
    limits (-20.0 10.0)
           (0.0 20.0)
  end
  begin
     id 18 
     name lhumerus
     direction 1 -4.48954e-011 -4.9675e-028   
     length 4.6851   
     axis 180 -30 -90   XYZ
    dof rx ry rz
    limits (-60.0 90.0)
           (-90.0 90.0)
           (-90.0 90.0)
  end
  begin
     id 19
     name lradius
     direction 1 -4.48992e-011 -1.03359e-026   
     length 3.39626   
     axis 180 -30 -90   XYZ
    dof rx
    limits (-10.0 170.0)
  end
  begin
     id 20
     name lwrist
     direction 1 -4.48906e-011 -1.67336e-026   
     length 1.69813   
     axis 9.90442e-015 90 90   XYZ
    dof ry
    limits (-180.0 0.0)
 end
  begin
     id 21 
     name lhand
     direction 1 -4.49006e-011 -3.34673e-026   
     length 0.486078   
     axis 2.1355e-014 90 90   XYZ
    dof rx rz
    limits (-90.0 90.0)
           (-45.0 45.0)
  end
  begin
     id 22 
     name lfingers
     direction 1 -4.48992e-011 -6.69345e-026   
     length 0.391889   
     axis 4.27099e-014 90 90   XYZ
    dof rx
    limits (0.0 90.0)
  end
  begin
     id 23
     name lthumb
     direction 0.707107 -6.34926e-011 0.707107   
     length 0.562676   
     axis -90 45 2.85299e-015   XYZ
    dof rx rz
    limits (-45.0 45.0)
           (-45.0 45.0)
  end
  begin
     id 24 
     name rclavicle
     direction -0.882459 0.414895 -0.221648   
     length 3.44646  
     axis 0 0 0   XYZ 
    dof ry rz
    limits (-10.0 20.0)
           (-20.0 0.0)
  end
  begin
     id 25 
     name rhumerus
     direction -1 -4.48962e-011 -2.37984e-027  
     length 5.55576   
     axis 180 30 90   XYZ
    dof rx ry rz
    limits (-90.0 60.0)
           (-90.0 90.0)
           (-90.0 90.0)
  end
  begin
     id 26 
     name rradius
     direction -1 -4.48982e-011 -6.86791e-027   
     length 3.32774   
     axis 180 30 90   XYZ
    dof rx
    limits (-10.0 170.0)
  end
  begin
     id 27 
     name rwrist
     direction -1 -4.48961e-011 -1.67336e-026   
     length 1.66387   
     axis 9.90442e-015 -90 -90   XYZ
    dof ry
    limits (-180.0 0.0)
  end
  begin
     id 28
     name rhand
     direction -1 -4.4897e-011 -3.34673e-026   
     length 0.507628   
     axis 2.1355e-014 -90 -90   XYZ
    dof rx rz
    limits (-90.0 90.0)
           (-45.0 45.0)
  end
  begin
     id 29
     name rfingers
     direction -1 -4.48854e-011 -6.69345e-026   
     length 0.409263   
     axis 4.27099e-014 -90 -90   XYZ
    dof rx
    limits (0.0 90.0)
  end
  begin
     id 30
     name rthumb
     direction -0.707107 -6.34913e-011 0.707107   
     length 0.587622   
     axis -90 -45 -2.85299e-015   XYZ
    dof rx rz
    limits (-45.0 45.0)
           (-45.0 45.0)
  end
:hierarchy
  begin
    root lhipjoint rhipjoint lowerback
    lhipjoint lfemur
    lfemur ltibia
    ltibia lfoot
    lfoot ltoes
    rhipjoint rfemur
    rfemur rtibia
    rtibia rfoot
    rfoot rtoes
    lowerback upperback
    upperback thorax
    thorax lowerneck lclavicle rclavicle
    lowerneck upperneck
    upperneck head
    lclavicle lhumerus
    lhumerus lradius
    lradius lwrist
    lwrist lhand lthumb
    lhand lfingers
    rclavicle rhumerus
    rhumerus rradius
    rradius rwrist
    rwrist rhand rthumb
    rhand rfingers
  end

#!OML:ASF E:\motion texture\Top Level 1\Subject 1\Session 1\male.ASF
:FULLY-SPECIFIED
:DEGREES
1
root 42.1963 17.5894 4.5787 89.3684 -82.0226 -79.279
lowerback -2.15214 -0.374479 4.03377
upperback -1.58632 -0.698602 5.14833
thorax -0.404451 -0.417788 3.02532
lowerneck -19.9528 -0.269744 -4.38689
upperneck 17.6444 -0.0824464 4.46933
head 8.80736 0.139342 2.23564
rclavicle -4.57205e-015 3.81667e-014
rhumerus -29.9475 -16.3708 -73.2843
rradius 22.7788
rwrist 18.8867
rhand -11.7048 -24.7007
rfingers 7.12502
rthumb 14.3415 -54.1853
lclavicle -4.57205e-015 3.81667e-014
lhumerus -32.5979 20.9138 82.1443
lradius 26.8124
lwrist -31.1268
lhand -12.5274 19.5915
lfingers 7.12502
lthumb 13.5487 49.1307
rfemur -11.9854 0.569072 31.4652
rtibia 20.6375
rfoot -14.464 -10.7761
rtoes 15.2472
lfemur -21.221 0.362448 -8.55972
ltibia 37.3245
lfoot -16.4103 5.78276
ltoes -8.78953
2
root 42.1819 17.5815 4.56413 88.753 -81.8254 -78.8604
lowerback -1.81694 -0.386301 4.2679
upperback -1.43363 -0.701447 5.15752
thorax -0.43795 -0.420455 2.90584
lowerneck -19.9072 -0.285492 -4.37871
upperneck 17.3817 -0.100024 4.47637
head 8.71036 0.134276 2.23027
rclavicle -3.37934e-015 6.52014e-014
rhumerus -29.6725 -15.6657 -73.6779
rradius 23.0627
rwrist 18.6865
rhand -12.0052 -24.8343
rfingers 7.12502
rthumb 14.052 -54.3392
lclavicle -3.37934e-015 6.52014e-014
lhumerus -32.3863 21.3061 82.1268
lradius 26.8675
lwrist -31.369
lhand -12.7113 19.5084
lfingers 7.12502
lthumb 13.3715 49.0593
rfemur -11.7081 0.375742 31.7419
rtibia 20.627
rfoot -14.5279 -10.6668
rtoes 15.5801
lfemur -22.3532 0.643821 -8.36073
ltibia 39.6419
lfoot -15.9272 5.76042
ltoes -11.3101
3
root 42.1618 17.5745 4.54755 89.0157 -81.6497 -79.3349
lowerback -1.53088 -0.356969 4.46629
upperback -1.25595 -0.653326 5.16209
thorax -0.418614 -0.396575 2.80158
lowerneck -19.9088 -0.259412 -4.41253
upperneck 17.161 -0.0598502 4.54263
head 8.63333 0.16011 2.2606
rclavicle -7.25564e-015 -3.89618e-014
rhumerus -29.3744 -15.0868 -74.039
rradius 23.3904
rwrist 18.4851
rhand -12.0917 -24.8435
rfingers 7.12502
rthumb 13.9686 -54.3542
lclavicle -7.25564e-015 -3.89618e-014
lhumerus -32.2818 21.128 82.3093
lradius 27.2219
lwrist -30.9248
lhand -13.0243 19.4191
lfingers 7.12502
lthumb 13.0698 48.9896
rfemur -11.3771 0.289116 32.0234
rtibia 20.5818
rfoot -14.5892 -10.5586
rtoes 15.8283
lfemur -23.4147 1.0162 -8.14358
ltibia 41.9002
lfoot -15.4263 5.61634
ltoes -12.8135
4
root 42.1419 17.568 4.5315 89.4739 -81.5994 -79.9454
lowerback -1.37844 -0.288045 4.50799
upperback -1.03342 -0.562023 5.13898
thorax -0.277074 -0.347597 2.75481
lowerneck -19.9307 -0.27099 -4.34487
upperneck 16.8445 -0.0696062 4.48216
head 8.53006 0.156458 2.22322
rclavicle -2.5842e-015 8.18993e-014
rhumerus -28.9916 -14.5479 -74.3777
rradius 23.6697
rwrist 18.2898
rhand -12.3189 -25.0119
rfingers 7.12502
rthumb 13.7496 -54.5376
lclavicle -2.5842e-015 8.18993e-014
lhumerus -31.9841 20.9767 82.557
lradius 27.5344
lwrist -30.4648
lhand -13.0979 19.5878
lfingers 7.12502
lthumb 12.9988 49.1628
rfemur -11.1267 0.329937 32.172
rtibia 20.5888
rfoot -14.7043 -10.552
rtoes 15.9629
lfemur -24.5364 1.34767 -8.07105
ltibia 44.0451
lfoot -14.555 5.63835
ltoes -10.5975
5
root 42.1202 17.5626 4.512 90.1101 -81.5414 -80.7127
lowerback -1.08535 -0.251141 4.53021
upperback -0.947149 -0.493521 5.12485
thorax -0.354184 -0.313248 2.73013
lowerneck -19.9191 -0.240624 -4.47966
upperneck 16.7192 -0.0265833 4.68163
head 8.48316 0.190157 2.31707
rclavicle -9.14409e-015 3.65764e-014
rhumerus -28.8338 -13.9567 -74.6666
rradius 23.9292
rwrist 18.4246
rhand -12.7205 -24.2541
rfingers 7.12502
rthumb 13.3626 -53.8056
lclavicle -9.14409e-015 3.65764e-014
lhumerus -32.0175 20.8129 82.6801
lradius 27.9877
lwrist -29.868
lhand -13.2908 19.819
lfingers 7.12502
lthumb 12.8128 49.4058
rfemur -10.8938 0.483682 32.3417
rtibia 20.6029
rfoot -14.8084 -10.5862
rtoes 16.2279
lfemur -25.7036 1.68582 -7.98025
ltibia 46.2142
lfoot -13.6864 5.69288
ltoes -13.6972
6
root 42.0948 17.5586 4.49664 90.741 -81.4598 -81.48
lowerback -0.880531 -0.207592 4.6514
upperback -0.799676 -0.428072 5.08933
thorax -0.31942 -0.279421 2.6265
lowerneck -19.718 -0.207879 -4.42042
upperneck 16.2539 0.0171286 4.64215
head 8.28866 0.211414 2.29094
rclavicle 4.07509e-015 -7.95139e-016
rhumerus -28.5769 -13.2668 -75.0572
rradius 24.3404
rwrist 17.9856
rhand -12.8149 -24.6373
rfingers 7.12502
rthumb 13.2716 -54.1948
lclavicle 4.07509e-015 -7.95139e-016
lhumerus -31.9578 20.6154 82.8293
lradius 28.4624
lwrist -29.2608
lhand -13.3862 19.827
lfingers 7.12502
lthumb 12.7209 49.4195
rfemur -10.6243 0.586479 32.5035
rtibia 20.5521
rfoot -14.9612 -10.539
rtoes 16.7226
lfemur -26.7888 1.9581 -7.87474
ltibia 48.2095
lfoot -12.8118 5.84244
ltoes -11.9846
7
root 42.0681 17.5526 4.48167 91.3958 -81.2382 -82.2534
lowerback -0.703819 -0.143251 4.90051
upperback -0.661117 -0.340237 5.09858
thorax -0.278258 -0.236062 2.49785
lowerneck -19.7267 -0.192919 -4.49407
upperneck 16.1082 0.0417214 4.75327
head 8.23967 0.231211 2.34177
rclavicle -4.17448e-015 2.74323e-014
rhumerus -28.3252 -12.6496 -75.4013
rradius 24.6934
rwrist 17.8774
rhand -13.1128 -24.912
rfingers 7.12502
rthumb 12.9845 -54.488
lclavicle -4.17448e-015 2.74323e-014
lhumerus -31.9096 20.3266 83.04
lradius 28.9937
lwrist -28.5553
lhand -13.5312 20.1345
lfingers 7.12502
lthumb 12.5811 49.7356
rfemur -10.3535 0.662924 32.8449
rtibia 20.4858
rfoot -15.0383 -10.5141
rtoes 16.7605
lfemur -27.8873 2.21288 -7.60056
ltibia 50.1013
lfoot -11.8823 6.15154
ltoes -15.3268
8
root 42.0369 17.5496 4.46516 92.6616 -81.2419 -83.5755
lowerback -0.632167 -0.0503071 4.8678
upperback -0.520792 -0.217771 5.06148
thorax -0.174937 -0.171738 2.4778
lowerneck -19.6537 -0.185058 -4.46744
upperneck 15.8199 0.0592778 4.71755
head 8.12926 0.238552 2.32267
rclavicle 6.55989e-015 -6.04305e-014
rhumerus -28.0619 -12.0137 -75.7448
rradius 25.0739
rwrist 17.6398
rhand -13.3757 -24.8933
rfingers 7.12502
rthumb 12.731 -54.4852
lclavicle 6.55989e-015 -6.04305e-014
lhumerus -31.9162 20.0333 83.2441
lradius 29.6017
lwrist -27.9074
lhand -13.6128 20.1222
lfingers 7.12502
lthumb 12.5024 49.7282
rfemur -10.1346 0.78877 32.9199
rtibia 20.4138
rfoot -15.0597 -10.4487
rtoes 16.559
lfemur -28.9738 2.49992 -7.60448
ltibia 51.8149
lfoot -10.7137 7.07299
ltoes -16.5696
9
root 42.0009 17.5484 4.44994 92.8664 -81.204 -83.8659
lowerback -0.584057 -0.0152536 4.9328
upperback -0.359589 -0.176601 5.01064
thorax -0.0365562 -0.147765 2.38862
lowerneck -19.7193 -0.168543 -4.50884
upperneck 15.6841 0.0845161 4.80178
head 8.09361 0.25838 2.35967
rclavicle 9.93923e-016 2.8625e-014
rhumerus -27.7833 -11.2274 -76.1904
rradius 25.5404
rwrist 17.251
rhand -13.6845 -25.2009
rfingers 7.12502
rthumb 12.4333 -54.8111
lclavicle 9.93923e-016 2.8625e-014
lhumerus -31.8997 19.6755 83.4581
lradius 30.2402
lwrist -27.1786
lhand -13.6744 20.5666
lfingers 7.12502
lthumb 12.443 50.1762
rfemur -9.82133 0.829045 33.0324
rtibia 20.28
rfoot -15.2259 -10.4533
rtoes 16.7126
lfemur -29.9632 2.58069 -7.54773
ltibia 53.3042
lfoot -10.4075 7.31261
ltoes -15.0069
10
root 41.9639 17.5469 4.43774 93.3689 -81.0893 -84.4682
lowerback -0.400552 0.0164426 5.08746
upperback -0.282989 -0.12497 4.99246
thorax -0.0612835 -0.122219 2.28407
lowerneck -19.6493 -0.125037 -4.50661
upperneck 15.518 0.149598 4.78444
head 8.02256 0.287805 2.35841
rclavicle -4.96962e-016 5.1684e-015
rhumerus -27.623 -10.3966 -76.5629
rradius 26.012
rwrist 16.8873
rhand -13.7024 -25.7104
rfingers 7.12502
rthumb 12.4161 -55.3216
lclavicle -4.96962e-016 5.1684e-015
lhumerus -32.0384 19.354 83.6068
lradius 30.871
lwrist -26.4841
lhand -13.8561 20.5403
lfingers 7.12502
lthumb 12.2679 50.1605
rfemur -9.51574 0.84274 33.2147
rtibia 20.175
rfoot -15.4133 -10.3668
rtoes 17.0488
lfemur -30.8936 2.72672 -7.39342
ltibia 54.7794
lfoot -10.8495 6.89855
ltoes -14.6585
11
root 41.9223 17.5457 4.42684 94.4274 -80.8683 -85.5881
lowerback -0.367104 0.107086 5.37471
upperback -0.162731 -0.013075 4.97916
thorax 0.0438207 -0.0651648 2.11063
lowerneck -19.5882 -0.114579 -4.49235
upperneck 15.3323 0.162303 4.79022
head 7.94933 0.295677 2.35631
rclavicle -1.09332e-015 -5.24792e-014
rhumerus -27.4398 -9.60524 -76.9516
rradius 26.5285
rwrist 16.4542
rhand -13.9694 -25.6476
rfingers 7.12502
rthumb 12.1586 -55.2742
lclavicle -1.09332e-015 -5.24792e-014
lhumerus -32.1194 18.9538 83.7935
lradius 31.5501
lwrist -25.7908
lhand -13.9938 20.728
lfingers 7.12502
lthumb 12.1351 50.356
rfemur -9.20443 0.916989 33.5247
rtibia 20.0268
rfoot -15.593 -10.2483
rtoes 17.5373
lfemur -31.7905 3.07304 -7.14786
ltibia 55.8497
lfoot -11.2527 6.14165
ltoes -14.6335
12
root 41.8784 17.5455 4.41475 95.6202 -80.9589 -86.7487
lowerback -0.495612 0.210917 5.29288
upperback -0.0318489 0.108987 4.89206
thorax 0.251066 0.00172693 2.0667
lowerneck -19.5629 -0.113815 -4.44171
upperneck 15.1277 0.15977 4.76497
head 7.87695 0.29579 2.33602
rclavicle 4.27387e-015 2.70347e-014
rhumerus -27.203 -8.93153 -77.2918
rradius 27.0433
rwrist 16.2009
rhand -14.3205 -25.3882
rfingers 7.12502
rthumb 11.8201 -55.0346
lclavicle 4.27387e-015 2.70347e-014
lhumerus -32.0708 18.6042 83.9864
lradius 32.1285
lwrist -25.1979
lhand -13.927 20.5753
lfingers 7.12502
lthumb 12.1995 50.1996
rfemur -8.99291 1.001 33.46
rtibia 19.8722
rfoot -15.7333 -10.157
rtoes 17.6772
lfemur -32.7102 3.31753 -7.24693
ltibia 56.7325
lfoot -11.54 5.34579
ltoes -16.1488
13
root 41.8338 17.5467 4.40526 96.752 -80.9839 -87.859
lowerback -0.408309 0.263651 5.33814
upperback -0.0262216 0.189623 4.80708
thorax 0.20838 0.0427865 1.95384
lowerneck -19.5191 -0.0339149 -4.49613
upperneck 15.0865 0.265171 4.85869
head 7.85006 0.351848 2.38817
rclavicle 3.97569e-015 -2.50469e-014
rhumerus -27.1131 -8.38103 -77.6025
rradius 27.528
rwrist 16.2295
rhand -14.1681 -26.168
rfingers 7.12502
rthumb 11.967 -55.8059
lclavicle 3.97569e-015 -2.50469e-014
lhumerus -32.2862 18.2541 84.0753
lradius 32.8074
lwrist -24.5224
lhand -13.9662 20.5621
lfingers 7.12502
lthumb 12.1617 50.1886
rfemur -8.73532 1.06002 33.4647
rtibia 19.6753
rfoot -15.8606 -10.039
rtoes 17.9028
lfemur -33.5406 3.59997 -7.27699
ltibia 57.3028
lfoot -11.5466 4.78563
ltoes -13.9947
14
root 41.7874 17.5488 4.3973 98.4071 -81.0063 -89.4458
lowerback -0.531128 0.389403 5.37763
upperback 0.073389 0.34227 4.71345
thorax 0.381561 0.123978 1.83694
lowerneck -19.5236 -0.0337781 -4.55809
upperneck 14.9784 0.272942 4.92958
head 7.81417 0.359724 2.42149
rclavicle -2.98177e-016 -4.77083e-015
rhumerus -26.9242 -7.52182 -77.9976
rradius 28.1824
rwrist 15.7682
rhand -14.4974 -25.2021
rfingers 7.12502
rthumb 11.6495 -54.8583
lclavicle -2.98177e-016 -4.77083e-015
lhumerus -32.268 17.8817 84.2395
lradius 33.3971
lwrist -23.9243
lhand -13.9032 20.5938
lfingers 7.12502
lthumb 12.2224 50.2167
rfemur -8.51549 1.24933 33.4623
rtibia 19.4586
rfoot -15.9945 -9.97421
rtoes 18.1392
lfemur -34.377 3.93109 -7.30581
ltibia 57.6593
lfoot -11.5887 4.47741
ltoes -17.7537
